HIERARCHY
ROOT root
{
	OFFSET	0	13.1	24.9
	CHANNELS 6  Xposition Yposition Zposition Xrotation Yrotation Zrotation
	JOINT spine_1
	{
		OFFSET	0	9.99999	0
		CHANNELS 3  Xrotation Yrotation Zrotation
		JOINT spine_2
		{
			OFFSET	0	112	-10
			CHANNELS 3  Xrotation Yrotation Zrotation
			JOINT spine_3
			{
				OFFSET	0	206.5	19.3
				CHANNELS 3  Xrotation Yrotation Zrotation
				JOINT spine_4
				{
					OFFSET	0	110.4	14.6
					CHANNELS 3  Xrotation Yrotation Zrotation
					JOINT neck_1
					{
						OFFSET	0	71.8	-50.3
						CHANNELS 3  Xrotation Yrotation Zrotation
						JOINT neck_2
						{
							OFFSET	0	86.2	-25.8
							CHANNELS 3  Xrotation Yrotation Zrotation
							JOINT head_ee
							{
								OFFSET	0	179.8	-8.7
								CHANNELS 3  Xrotation Yrotation Zrotation
								End Site
								{
									OFFSET	1	0	0
								}
							}
						}
					}
					JOINT left_clavicle
					{
						OFFSET	-43.2	22.4	-70.8
						CHANNELS 3  Xrotation Yrotation Zrotation
						JOINT left_shoulder
						{
							OFFSET	-93.9	-5.79999	48.7
							CHANNELS 3  Xrotation Yrotation Zrotation
							JOINT left_elbow
							{
								OFFSET	-291.4	-30.8	15.2
								CHANNELS 3  Xrotation Yrotation Zrotation
								JOINT left_lowarm_twist
								{
									OFFSET	-110.7	-3.89999	13.6
									CHANNELS 3  Xrotation Yrotation Zrotation
									JOINT left_hand
									{
										OFFSET	-110.7	-3.89999	13.6
										CHANNELS 3  Xrotation Yrotation Zrotation
										JOINT left_ee
										{
											OFFSET	-80.8	-5.10001	12.1
											CHANNELS 3  Xrotation Yrotation Zrotation
											End Site
											{
												OFFSET	1	0	0
											}
										}
									}
								}
							}
						}
					}
					JOINT right_clavicle
					{
						OFFSET	43.2	22.4	-70.8
						CHANNELS 3  Xrotation Yrotation Zrotation
						JOINT right_shoulder
						{
							OFFSET	93.9	-5.79999	48.7
							CHANNELS 3  Xrotation Yrotation Zrotation
							JOINT right_elbow
							{
								OFFSET	291.4	-30.8	15.2
								CHANNELS 3  Xrotation Yrotation Zrotation
								JOINT right_lowarm_twist
								{
									OFFSET	110.7	-3.89999	13.6
									CHANNELS 3  Xrotation Yrotation Zrotation
									JOINT right_hand
									{
										OFFSET	110.7	-3.89999	13.6
										CHANNELS 3  Xrotation Yrotation Zrotation
										JOINT right_ee
										{
											OFFSET	80.8	-5.10001	12.1
											CHANNELS 3  Xrotation Yrotation Zrotation
											End Site
											{
												OFFSET	1	0	0
											}
										}
									}
								}
							}
						}
					}
				}
			}
		}
	}
	JOINT left_hip
	{
		OFFSET	-82.8	-127.5	0.300001
		CHANNELS 3  Xrotation Yrotation Zrotation
		JOINT left_knee
		{
			OFFSET	-28.2	-396.7	2.2
			CHANNELS 3  Xrotation Yrotation Zrotation
			JOINT left_ankle
			{
				OFFSET	-11.7	-411.3	35.4
				CHANNELS 3  Xrotation Yrotation Zrotation
				JOINT left_toes
				{
					OFFSET	0	-60	-88.6
					CHANNELS 3  Xrotation Yrotation Zrotation
					JOINT left_foot_ee
					{
						OFFSET	-22.5	-16.5	-42.2
						CHANNELS 3  Xrotation Yrotation Zrotation
						End Site
						{
							OFFSET	1	0	0
						}
					}
				}
			}
		}
	}
	JOINT right_hip
	{
		OFFSET	82.8	-127.5	0.300001
		CHANNELS 3  Xrotation Yrotation Zrotation
		JOINT right_knee
		{
			OFFSET	28.2	-396.7	2.2
			CHANNELS 3  Xrotation Yrotation Zrotation
			JOINT right_ankle
			{
				OFFSET	11.7	-411.3	35.4
				CHANNELS 3  Xrotation Yrotation Zrotation
				JOINT right_toes
				{
					OFFSET	0	-60	-88.6
					CHANNELS 3  Xrotation Yrotation Zrotation
					JOINT right_foot_ee
					{
						OFFSET	22.5	-16.5	-42.2
						CHANNELS 3  Xrotation Yrotation Zrotation
						End Site
						{
							OFFSET	1	0	0
						}
					}
				}
			}
		}
	}
}
MOTION
Frames: 14
Frame Time: 0.02
1256.53417952 726.121 -1716.34568402 -21.0882586441 18.6622428148 -2.66806904866 10.4417 0.437898 2.57146 10.4454 0.273439 2.59409 10.449 0.19733 2.60099 10.44 0.605498 2.53725 -21.2786 2.68296 -3.98261 -21.3167 7.11102 -2.51483 -0.0 0.0 -0.0 0.824146 14.096 2.99927 -38.1817 -33.5351 66.1112 0.195093 -5.52025 0.00940554 1.03056 0.0351691 -0.12692 3.12797 -15.3208 14.6 -0.0 0.0 -0.0 11.9885 20.4377 -23.8759 -17.9581 -40.139 -70.5608 0.197509 5.58817 -0.00963942 -44.0431 3.39105 -4.33569 8.3006 8.53724 -65.2298 0.0 0.0 0.0 53.1649 11.1503 -0.243169 -62.158 -2.43746 8.75881 41.8539 21.2306 -5.22788 -29.6313 0.0 0.0 -0.0 0.0 -0.0 38.8372 1.58976 6.54592 -21.8852 -0.268477 -3.32735 35.731 15.9615 4.79866 24.7181 -0.0 -0.0 0.0 0.0 0.0 
1248.71730498 726.519 -1726.04489287 -20.4353806604 18.2348588812 -3.26136780539 10.4034 0.452738 2.51591 10.4068 0.29178 2.53959 10.4114 0.215603 2.54719 10.4029 0.615054 2.48124 -22.6657 2.8617 -2.86156 -22.7264 6.84318 -1.32321 -0.0 0.0 -0.0 1.05167 12.2686 3.20461 -39.128 -31.7401 68.3732 0.201342 -5.69592 0.0100162 4.72554 0.142364 -0.586648 3.44694 4.16478 25.3376 -0.0 0.0 -0.0 11.5038 23.9271 -22.4679 -20.6362 -41.0748 -74.3391 0.200851 5.68212 -0.00996752 -44.3264 3.42258 -4.35378 8.5607 10.0347 -67.511 0.0 0.0 0.0 52.9736 12.308 -0.999525 -58.8276 -2.07473 8.39501 41.5818 19.3348 -5.15634 -25.2087 0.0 0.0 -0.0 0.0 -0.0 38.4907 1.75141 6.88628 -24.4672 -0.215928 -3.72005 37.323 12.2874 4.8429 15.2983 -0.0 -0.0 0.0 0.0 0.0 
1244.77371467 726.519 -1724.06699664 -20.5422750276 19.0820298339 -2.92725553013 10.4034 0.452738 2.51591 10.4068 0.29178 2.53959 10.4114 0.215603 2.54719 10.4029 0.615054 2.48124 -22.6657 2.8617 -2.86156 -22.7264 6.84318 -1.32321 -0.0 0.0 -0.0 1.05167 12.2686 3.20461 -39.128 -31.7401 68.3732 0.201342 -5.69592 0.0100162 4.72554 0.142364 -0.586648 3.44694 4.16478 25.3376 -0.0 0.0 -0.0 11.5038 23.9271 -22.4679 -20.6362 -41.0748 -74.3391 0.200851 5.68212 -0.00996752 -44.3264 3.42258 -4.35378 8.5607 10.0347 -67.511 0.0 0.0 0.0 52.9736 12.308 -0.999525 -58.8276 -2.07473 8.39501 41.5818 19.3348 -5.15634 -25.2087 0.0 0.0 -0.0 0.0 -0.0 38.4907 1.75141 6.88628 -24.4672 -0.215928 -3.72005 37.323 12.2874 4.8429 15.2983 -0.0 -0.0 0.0 0.0 0.0 
1216.6217499 726.474 -1744.36852014 -20.4482934456 19.7427567851 -1.35386536243 9.88799 0.853377 2.46683 9.8911 0.694728 2.5161 9.91412 0.597425 2.54094 9.90649 0.991107 2.41482 -20.3446 0.81876 -4.59243 -20.3091 3.88557 -3.92094 -0.0 0.0 -0.0 1.45352 12.5173 3.89585 -45.2757 -32.8255 67.0994 0.265851 -7.50256 0.0174308 2.03173 0.0671416 -0.250799 4.32177 -2.70443 29.1583 -0.0 0.0 -0.0 12.6782 26.8411 -24.835 -20.6797 -42.3252 -73.8791 0.196917 5.57154 -0.00958191 -43.6942 3.35233 -4.31318 9.01725 11.1933 -74.3677 0.0 0.0 0.0 52.7566 9.50212 -2.03815 -43.0043 -0.668877 6.41365 37.8259 25.6037 -4.97308 -19.9965 0.0 0.0 -0.0 0.0 -0.0 34.8828 -1.45473 6.2082 -22.169 -0.263568 -3.37061 38.8931 16.1381 5.10459 14.3408 -0.0 -0.0 0.0 0.0 0.0 
1191.56565165 727.259 -1752.99003779 -19.8095834488 21.5804734282 -0.728241172524 9.7793 0.930391 2.52647 9.78253 0.767796 2.5805 9.80939 0.66328 2.60931 9.80148 1.06692 2.47194 -21.9699 1.00049 -5.9667 -21.9101 4.75834 -5.08549 -0.0 0.0 -0.0 1.08553 16.5899 3.64036 -44.5311 -30.6177 64.878 0.195143 -5.52166 0.00941039 3.40536 0.107474 -0.421621 4.36135 1.48118 31.2356 -0.0 0.0 -0.0 13.1605 26.9522 -25.9322 -15.5718 -43.6924 -69.5521 0.188751 5.34186 -0.00880531 -47.9096 3.82884 -4.56913 8.95586 9.74583 -75.8777 0.0 0.0 0.0 51.2148 6.86884 -0.749226 -39.7328 -0.449852 5.96084 36.5511 26.4336 -4.86884 -16.1145 0.0 0.0 -0.0 0.0 -0.0 32.8134 -6.86631 7.04265 -21.1422 -0.280314 -3.21395 38.6983 19.008 5.19353 10.0407 -0.0 -0.0 0.0 0.0 0.0 
1175.1490998 723.077 -1751.06418811 -21.4888537449 24.0689549487 1.22926232722 10.1905 0.85056 2.39739 10.1934 0.696332 2.44661 10.2158 0.614701 2.46837 10.2087 0.996715 2.34043 -22.1657 -0.121454 -4.26241 -22.1206 1.77043 -4.00778 -0.0 0.0 -0.0 1.12606 17.7035 3.79688 -47.7048 -34.9782 63.5174 0.23033 -6.50939 0.013098 0.0469448 0.00165159 -0.00576793 4.31458 5.05396 32.2523 -0.0 0.0 -0.0 12.5714 26.9853 -24.5722 -12.6378 -44.2197 -68.3186 0.195325 5.52678 -0.00942798 -48.7645 3.92771 -4.61673 8.91567 9.2827 -75.8441 0.0 0.0 0.0 52.1087 1.35463 0.290137 -29.344 0.0686334 4.45376 32.2227 26.35 -4.39646 -12.6731 0.0 0.0 -0.0 0.0 -0.0 34.2186 -6.86935 7.58905 -22.5682 -0.256299 -3.43145 38.7201 20.0175 5.2373 9.40361 -0.0 -0.0 0.0 0.0 0.0 
1147.09782512 727.105 -1741.67841464 -22.6686404621 25.8219495639 3.03920376059 10.2154 0.774462 2.2389 10.218 0.630464 2.28361 10.2367 0.555034 2.30309 10.2305 0.911714 2.18662 -20.7646 1.92493 -6.95224 -20.7108 7.15465 -5.63236 -0.0 0.0 -0.0 2.47504 19.7326 5.95857 -52.3024 -34.3066 60.2803 0.267286 -7.54258 0.0176186 -2.94157 -0.112887 0.358599 4.78102 7.17977 36.7864 -0.0 0.0 -0.0 12.0745 26.1839 -23.53 -4.48309 -42.7454 -62.9613 0.193682 5.48057 -0.0092703 -47.204 3.74779 -4.52874 8.8497 8.55888 -75.6801 0.0 0.0 0.0 52.2337 -0.0282317 0.719076 -26.6062 0.159023 4.04335 27.036 27.3344 -3.8122 -5.56053 0.0 0.0 -0.0 0.0 -0.0 34.1089 -5.80472 7.15641 -21.6455 -0.272457 -3.29078 38.3658 19.6726 5.18966 9.17477 -0.0 -0.0 0.0 0.0 0.0 
1126.48520105 724.322 -1736.79026733 -23.7840706027 28.7241215628 4.75678375325 10.3171 0.519178 2.06244 10.3193 0.386917 2.09128 10.3279 0.321092 2.10239 10.3223 0.649028 2.02534 -20.7455 2.77159 -4.08769 -20.7839 7.36965 -2.6013 -0.0 0.0 -0.0 1.84714 19.9547 5.04214 -51.2987 -34.335 61.0442 0.330547 -9.29947 0.0268841 0.318629 0.0111175 -0.0391746 5.31524 9.59022 42.2129 -0.0 0.0 -0.0 12.5082 27.329 -24.385 -3.70216 -42.5073 -61.7325 0.190354 5.38696 -0.00895515 -50.5382 4.135 -4.71076 8.71457 6.90893 -75.5456 0.0 0.0 0.0 50.7912 -3.19334 0.649662 -16.8839 0.319722 2.56191 17.7321 27.6919 -2.60845 -1.50556 0.0 0.0 -0.0 0.0 -0.0 35.6285 -6.79019 7.72815 -25.4546 -0.191162 -3.86954 38.7861 18.2097 5.1702 7.16845 -0.0 -0.0 0.0 0.0 0.0 
1106.63288671 715.369 -1740.27037052 -25.0134866386 31.024305812 6.7220732547 10.4289 0.408375 1.75496 10.4306 0.295893 1.77738 10.4357 0.243254 1.78535 10.4316 0.522121 1.72455 -19.8288 4.19834 -4.61455 -19.9282 10.4491 -2.54239 -0.0 0.0 -0.0 1.29448 20.5935 4.27686 -51.7605 -36.6867 61.4016 0.382284 -10.7234 0.0358789 -5.00147 -0.202844 0.606095 4.86637 9.33923 38.2364 -0.0 0.0 -0.0 11.5166 19.505 -22.8628 8.76976 -28.7235 -64.5311 0.829261 22.3323 -0.163692 -52.1683 4.32797 -4.79148 8.49749 4.24642 -74.9456 0.0 0.0 0.0 50.6141 -9.57377 1.53977 -13.7545 0.317751 2.08184 22.0989 27.8043 -3.19638 3.90666 -0.0 -0.0 -0.0 0.0 -0.0 35.9589 -9.69333 8.67788 -27.2572 -0.139311 -4.14132 39.2761 18.4107 5.22288 4.91316 -0.0 -0.0 0.0 0.0 0.0 
1092.08342685 707.604 -1744.04837633 -24.2307938439 30.4062312933 7.19853393364 10.4558 0.48788 1.65281 10.4573 0.381733 1.6805 10.4648 0.332812 1.69086 10.4613 0.595641 1.61711 -19.6508 4.59918 -5.56295 -19.7619 11.7216 -3.27229 -0.0 0.0 -0.0 0.959628 20.7708 3.80545 -49.5557 -34.442 62.9445 0.330247 -9.29117 0.0268356 -1.0512 -0.0382225 0.1288 5.21869 9.59668 41.356 -0.0 0.0 -0.0 11.8144 26.0092 -22.9568 0.393107 -22.8475 -68.8393 1.08448 28.2448 -0.272861 -47.2891 3.75754 -4.53366 8.51588 4.62963 -74.7407 0.0 0.0 0.0 48.3813 -11.3809 -0.936799 -10.3873 0.286363 1.56622 21.3571 29.3088 -3.13094 8.91585 -0.0 -0.0 -0.0 0.0 -0.0 34.6236 -7.51113 6.72722 -28.5945 -0.095327 -4.34184 39.7472 15.8021 5.16989 8.35934 -0.0 -0.0 0.0 0.0 0.0 
1073.76632258 706.944 -1745.02719394 -25.4250710287 32.812033743 8.78634826375 10.5506 0.533128 1.85276 10.5524 0.414173 1.88291 10.5614 0.362594 1.89352 10.557 0.657041 1.81253 -18.5659 4.50908 -5.4678 -18.6578 11.5917 -3.32092 -0.0 0.0 -0.0 0.434951 20.5301 3.02277 -50.3334 -33.869 61.2717 0.437886 -12.239 0.0469474 -1.2645 -0.0462665 0.154848 5.52382 8.38093 43.694 -0.0 0.0 -0.0 11.0774 24.7323 -21.4201 -4.058 -11.711 -70.6777 1.09376 28.4488 -0.277269 -48.0318 3.84293 -4.57603 8.42892 3.422 -74.6289 0.0 0.0 0.0 48.3154 -10.1573 -0.600271 -9.3639 0.270824 1.40995 19.8344 29.222 -2.92394 7.72548 -0.0 -0.0 -0.0 0.0 -0.0 33.8421 -7.3264 7.20723 -28.3883 -0.102416 -4.31098 39.4216 17.0676 5.18529 12.3338 -0.0 -0.0 0.0 0.0 0.0 
1064.17378992 705.07 -1752.97202617 -25.3493622209 32.1757412263 9.13949902344 10.6459 0.483847 1.91878 10.6479 0.360794 1.94566 10.6552 0.310695 1.95428 10.6503 0.615385 1.88073 -18.7894 3.36835 -6.15861 -18.81 9.74443 -4.40594 -0.0 0.0 -0.0 0.424058 20.5476 3.00869 -50.8648 -35.7606 60.3605 0.458123 -12.7864 0.0513318 0.780472 0.0268447 -0.0960636 5.28364 8.90923 41.7009 -0.0 0.0 -0.0 10.8395 27.3387 -20.5976 -3.16688 -18.4601 -72.8041 1.0231 26.876 -0.244461 -40.6901 3.02485 -4.10978 8.35962 2.22028 -74.8571 0.0 0.0 0.0 47.3399 -7.18971 -1.0866 -7.40838 0.233381 1.11222 25.0053 29.296 -3.60806 10.7619 -0.0 -0.0 -0.0 0.0 -0.0 33.3081 -4.82913 5.91394 -29.154 -0.0755406 -4.42542 40.0925 12.7711 5.1061 4.75241 -0.0 -0.0 0.0 0.0 0.0 
1060.98854595 705.07 -1749.40008786 -25.5301602007 32.7729305245 9.4762243364 10.6459 0.483847 1.91878 10.6479 0.360794 1.94566 10.6552 0.310695 1.95428 10.6503 0.615385 1.88073 -18.7894 3.36835 -6.15861 -18.81 9.74443 -4.40594 -0.0 0.0 -0.0 0.424058 20.5476 3.00869 -50.8648 -35.7606 60.3605 0.458123 -12.7864 0.0513318 0.780472 0.0268447 -0.0960636 5.28364 8.90923 41.7009 -0.0 0.0 -0.0 10.8395 27.3387 -20.5976 -3.16688 -18.4601 -72.8041 1.0231 26.876 -0.244461 -40.6901 3.02485 -4.10978 8.35962 2.22028 -74.8571 0.0 0.0 0.0 47.3399 -7.18971 -1.0866 -7.40838 0.233381 1.11222 25.0053 29.296 -3.60806 10.7619 -0.0 -0.0 -0.0 0.0 -0.0 33.3081 -4.82913 5.91394 -29.154 -0.0755406 -4.42542 40.0925 12.7711 5.1061 4.75241 -0.0 -0.0 0.0 0.0 0.0 
1056.53997649 705.07 -1744.26901754 -25.7960610149 33.6187537966 9.96187044074 10.6459 0.483847 1.91878 10.6479 0.360794 1.94566 10.6552 0.310695 1.95428 10.6503 0.615385 1.88073 -18.7894 3.36835 -6.15861 -18.81 9.74443 -4.40594 -0.0 0.0 -0.0 0.424058 20.5476 3.00869 -50.8648 -35.7606 60.3605 0.458123 -12.7864 0.0513318 0.780472 0.0268447 -0.0960636 5.28364 8.90923 41.7009 -0.0 0.0 -0.0 10.8395 27.3387 -20.5976 -3.16688 -18.4601 -72.8041 1.0231 26.876 -0.244461 -40.6901 3.02485 -4.10978 8.35962 2.22028 -74.8571 0.0 0.0 0.0 47.3399 -7.18971 -1.0866 -7.40838 0.233381 1.11222 25.0053 29.296 -3.60806 10.7619 -0.0 -0.0 -0.0 0.0 -0.0 33.3081 -4.82913 5.91394 -29.154 -0.0755406 -4.42542 40.0925 12.7711 5.1061 4.75241 -0.0 -0.0 0.0 0.0 0.0 
